<svg width="21" height="22" viewBox="0 0 21 22" fill="none" xmlns="http://www.w3.org/2000/svg">
    <g clip-path="url(#clip0_351_797)">
        <path d="M17.7925 4.85865L13.8376 1.11712C13.417 0.719146 12.8664 0.5 12.2873 0.5H4.75781C3.51393 0.5 2.50195 1.51198 2.50195 2.75586V19.2441C2.50195 20.488 3.51393 21.5 4.75781 21.5H16.2422C17.4861 21.5 18.498 20.488 18.498 19.2441V6.49739C18.498 5.88014 18.2409 5.28283 17.7925 4.85865ZM16.5974 5.42188H13.5352C13.4221 5.42188 13.3301 5.32988 13.3301 5.2168V2.33077L16.5974 5.42188ZM16.2422 20.2695H4.75781C4.19241 20.2695 3.73242 19.8095 3.73242 19.2441V2.75586C3.73242 2.19046 4.19241 1.73047 4.75781 1.73047H12.0996V5.2168C12.0996 6.00836 12.7436 6.65234 13.5352 6.65234H17.2676V19.2441C17.2676 19.8095 16.8076 20.2695 16.2422 20.2695Z" fill="#14043D"/>
        <path d="M14.8887 8.70312H5.86523C5.52546 8.70312 5.25 8.97859 5.25 9.31836C5.25 9.65813 5.52546 9.93359 5.86523 9.93359H14.8887C15.2284 9.93359 15.5039 9.65813 15.5039 9.31836C15.5039 8.97859 15.2284 8.70312 14.8887 8.70312Z" fill="#14043D"/>
        <path d="M14.8887 11.9844H5.86523C5.52546 11.9844 5.25 12.2598 5.25 12.5996C5.25 12.9394 5.52546 13.2148 5.86523 13.2148H14.8887C15.2284 13.2148 15.5039 12.9394 15.5039 12.5996C15.5039 12.2598 15.2284 11.9844 14.8887 11.9844Z" fill="#14043D"/>
        <path d="M8.84789 15.2656H5.86523C5.52546 15.2656 5.25 15.5411 5.25 15.8809C5.25 16.2206 5.52546 16.4961 5.86523 16.4961H8.84789C9.18766 16.4961 9.46312 16.2206 9.46312 15.8809C9.46312 15.5411 9.18766 15.2656 8.84789 15.2656Z" fill="#14043D"/>
    </g>
    <defs>
        <clipPath id="clip0_351_797">
            <rect width="21" height="21" fill="white" transform="translate(0 0.5)"/>
        </clipPath>
    </defs>
</svg>